# xmcd
#
# Track frame offsets: 
#        150
#        11440
#        21022
#        33225
#        44977
#        58480
#        71625
#        86032
#        94897
#        106752
#        117122
#        130565
#
# Disc length: 1947 seconds
#
# Revision: 2
# Processed by: cddbd v1.5.1PL2 Copyright (c) Steve Scherf et al.
# Submitted via: ExactAudioCopy v0.95b3
#
DISCID=9e07990c
DTITLE=Various Artist - The Best of Bluegrass 20th Century Masters
DYEAR=2002
DGENRE=Bluegrass
TTITLE0=Ricky Skaggs - Hallelujah I'm Ready
TTITLE1=Bill Monroe and The Blue Grass Boys - Blue Moon of Kentucky
TTITLE2=Lester Flatt and Earl Scruggs - Foggy Mountain Breakdown
TTITLE3=The Osborne Brothers - Rocky Top
TTITLE4=Jimmy Martin - Widow Maker
TTITLE5=The Stanley Brothers - Who Will Call You Sweetheart
TTITLE6=Bill Monroe and The Blue Grass Boys - In the Pines
TTITLE7=The Stonemans - Shady Grove
TTITLE8=Lester Flatt and Earl Scruggs - Roll in My Sweet Baby's Arms
TTITLE9=The Stanley Brothers - Angel Band
TTITLE10=The Osborne Brothers and Red Allen - Ruby, are You Mad
TTITLE11=Vince Gill - High Lonesome Sound
EXTD=
EXTT0=
EXTT1=
EXTT2=
EXTT3=
EXTT4=
EXTT5=
EXTT6=
EXTT7=
EXTT8=
EXTT9=
EXTT10=
EXTT11=
PLAYORDER=
